<?xml version="1.0" encoding="UTF-8"?>
<svg xmlns="http://www.w3.org/2000/svg" width="840" height="520" viewBox="0 0 840 520">
<rect width="100%" height="100%" fill="white"/>
<line x1="68" y1="36" x2="68" y2="412" stroke="#222222" stroke-width="1.2"/>
<line x1="68" y1="412" x2="824" y2="412" stroke="#222222" stroke-width="1.2"/>
<text x="28" y="224.0" font-size="16" font-family="Helvetica, Arial, sans-serif" transform="rotate(-90 28 224.0)">Boundary RMSE (m)</text>
<line x1="68" y1="412.00" x2="824" y2="412.00" stroke="#e2e2e2" stroke-width="1"/>
<text x="58" y="417.00" text-anchor="end" font-size="13" font-family="Helvetica, Arial, sans-serif" fill="#444444">0.00</text>
<line x1="68" y1="363.79" x2="824" y2="363.79" stroke="#e2e2e2" stroke-width="1"/>
<text x="58" y="368.79" text-anchor="end" font-size="13" font-family="Helvetica, Arial, sans-serif" fill="#444444">0.50</text>
<line x1="68" y1="315.59" x2="824" y2="315.59" stroke="#e2e2e2" stroke-width="1"/>
<text x="58" y="320.59" text-anchor="end" font-size="13" font-family="Helvetica, Arial, sans-serif" fill="#444444">1.00</text>
<line x1="68" y1="267.38" x2="824" y2="267.38" stroke="#e2e2e2" stroke-width="1"/>
<text x="58" y="272.38" text-anchor="end" font-size="13" font-family="Helvetica, Arial, sans-serif" fill="#444444">1.50</text>
<line x1="68" y1="219.18" x2="824" y2="219.18" stroke="#e2e2e2" stroke-width="1"/>
<text x="58" y="224.18" text-anchor="end" font-size="13" font-family="Helvetica, Arial, sans-serif" fill="#444444">2.00</text>
<line x1="68" y1="170.97" x2="824" y2="170.97" stroke="#e2e2e2" stroke-width="1"/>
<text x="58" y="175.97" text-anchor="end" font-size="13" font-family="Helvetica, Arial, sans-serif" fill="#444444">2.50</text>
<line x1="68" y1="122.77" x2="824" y2="122.77" stroke="#e2e2e2" stroke-width="1"/>
<text x="58" y="127.77" text-anchor="end" font-size="13" font-family="Helvetica, Arial, sans-serif" fill="#444444">3.00</text>
<line x1="68" y1="74.56" x2="824" y2="74.56" stroke="#e2e2e2" stroke-width="1"/>
<text x="58" y="79.56" text-anchor="end" font-size="13" font-family="Helvetica, Arial, sans-serif" fill="#444444">3.50</text>
<circle cx="252.79" cy="275.58" r="3.0" fill="rgb(194,118,44)" fill-opacity="0.35" stroke="none"/>
<circle cx="255.64" cy="290.01" r="3.0" fill="rgb(194,118,44)" fill-opacity="0.35" stroke="none"/>
<circle cx="258.48" cy="279.27" r="3.0" fill="rgb(194,118,44)" fill-opacity="0.35" stroke="none"/>
<circle cx="261.32" cy="277.31" r="3.0" fill="rgb(194,118,44)" fill-opacity="0.35" stroke="none"/>
<circle cx="264.16" cy="262.41" r="3.0" fill="rgb(194,118,44)" fill-opacity="0.35" stroke="none"/>
<circle cx="267.00" cy="284.94" r="3.0" fill="rgb(194,118,44)" fill-opacity="0.35" stroke="none"/>
<circle cx="269.85" cy="291.03" r="3.0" fill="rgb(194,118,44)" fill-opacity="0.35" stroke="none"/>
<circle cx="252.79" cy="273.43" r="3.0" fill="rgb(194,118,44)" fill-opacity="0.35" stroke="none"/>
<circle cx="255.64" cy="287.74" r="3.0" fill="rgb(194,118,44)" fill-opacity="0.35" stroke="none"/>
<circle cx="258.48" cy="289.13" r="3.0" fill="rgb(194,118,44)" fill-opacity="0.35" stroke="none"/>
<circle cx="261.32" cy="288.04" r="3.0" fill="rgb(194,118,44)" fill-opacity="0.35" stroke="none"/>
<circle cx="264.16" cy="281.11" r="3.0" fill="rgb(194,118,44)" fill-opacity="0.35" stroke="none"/>
<circle cx="267.00" cy="258.50" r="3.0" fill="rgb(194,118,44)" fill-opacity="0.35" stroke="none"/>
<circle cx="269.85" cy="292.11" r="3.0" fill="rgb(194,118,44)" fill-opacity="0.35" stroke="none"/>
<circle cx="252.79" cy="284.09" r="3.0" fill="rgb(194,118,44)" fill-opacity="0.35" stroke="none"/>
<circle cx="255.64" cy="282.59" r="3.0" fill="rgb(194,118,44)" fill-opacity="0.35" stroke="none"/>
<circle cx="258.48" cy="310.09" r="3.0" fill="rgb(194,118,44)" fill-opacity="0.35" stroke="none"/>
<circle cx="261.32" cy="293.86" r="3.0" fill="rgb(194,118,44)" fill-opacity="0.35" stroke="none"/>
<circle cx="264.16" cy="277.68" r="3.0" fill="rgb(194,118,44)" fill-opacity="0.35" stroke="none"/>
<circle cx="267.00" cy="282.45" r="3.0" fill="rgb(194,118,44)" fill-opacity="0.35" stroke="none"/>
<circle cx="269.85" cy="260.38" r="3.0" fill="rgb(194,118,44)" fill-opacity="0.35" stroke="none"/>
<circle cx="252.79" cy="292.20" r="3.0" fill="rgb(194,118,44)" fill-opacity="0.35" stroke="none"/>
<circle cx="255.64" cy="298.90" r="3.0" fill="rgb(194,118,44)" fill-opacity="0.35" stroke="none"/>
<circle cx="258.48" cy="273.85" r="3.0" fill="rgb(194,118,44)" fill-opacity="0.35" stroke="none"/>
<circle cx="261.32" cy="289.24" r="3.0" fill="rgb(194,118,44)" fill-opacity="0.35" stroke="none"/>
<circle cx="264.16" cy="296.62" r="3.0" fill="rgb(194,118,44)" fill-opacity="0.35" stroke="none"/>
<circle cx="267.00" cy="279.37" r="3.0" fill="rgb(194,118,44)" fill-opacity="0.35" stroke="none"/>
<circle cx="269.85" cy="280.73" r="3.0" fill="rgb(194,118,44)" fill-opacity="0.35" stroke="none"/>
<circle cx="252.79" cy="288.32" r="3.0" fill="rgb(194,118,44)" fill-opacity="0.35" stroke="none"/>
<circle cx="255.64" cy="282.18" r="3.0" fill="rgb(194,118,44)" fill-opacity="0.35" stroke="none"/>
<circle cx="258.48" cy="287.79" r="3.0" fill="rgb(194,118,44)" fill-opacity="0.35" stroke="none"/>
<circle cx="261.32" cy="270.05" r="3.0" fill="rgb(194,118,44)" fill-opacity="0.35" stroke="none"/>
<circle cx="264.16" cy="277.15" r="3.0" fill="rgb(194,118,44)" fill-opacity="0.35" stroke="none"/>
<circle cx="267.00" cy="276.84" r="3.0" fill="rgb(194,118,44)" fill-opacity="0.35" stroke="none"/>
<circle cx="269.85" cy="284.18" r="3.0" fill="rgb(194,118,44)" fill-opacity="0.35" stroke="none"/>
<circle cx="252.79" cy="295.32" r="3.0" fill="rgb(194,118,44)" fill-opacity="0.35" stroke="none"/>
<circle cx="255.64" cy="276.63" r="3.0" fill="rgb(194,118,44)" fill-opacity="0.35" stroke="none"/>
<circle cx="258.48" cy="272.25" r="3.0" fill="rgb(194,118,44)" fill-opacity="0.35" stroke="none"/>
<circle cx="261.32" cy="297.42" r="3.0" fill="rgb(194,118,44)" fill-opacity="0.35" stroke="none"/>
<circle cx="264.16" cy="279.32" r="3.0" fill="rgb(194,118,44)" fill-opacity="0.35" stroke="none"/>
<circle cx="267.00" cy="301.21" r="3.0" fill="rgb(194,118,44)" fill-opacity="0.35" stroke="none"/>
<circle cx="269.85" cy="290.34" r="3.0" fill="rgb(194,118,44)" fill-opacity="0.35" stroke="none"/>
<circle cx="252.79" cy="267.10" r="3.0" fill="rgb(194,118,44)" fill-opacity="0.35" stroke="none"/>
<circle cx="255.64" cy="279.00" r="3.0" fill="rgb(194,118,44)" fill-opacity="0.35" stroke="none"/>
<circle cx="258.48" cy="282.92" r="3.0" fill="rgb(194,118,44)" fill-opacity="0.35" stroke="none"/>
<circle cx="261.32" cy="278.58" r="3.0" fill="rgb(194,118,44)" fill-opacity="0.35" stroke="none"/>
<circle cx="264.16" cy="264.06" r="3.0" fill="rgb(194,118,44)" fill-opacity="0.35" stroke="none"/>
<circle cx="267.00" cy="287.30" r="3.0" fill="rgb(194,118,44)" fill-opacity="0.35" stroke="none"/>
<circle cx="269.85" cy="222.93" r="3.0" fill="rgb(194,118,44)" fill-opacity="0.35" stroke="none"/>
<circle cx="252.79" cy="289.26" r="3.0" fill="rgb(194,118,44)" fill-opacity="0.35" stroke="none"/>
<line x1="261.32" y1="258.50" x2="261.32" y2="276.91" stroke="rgb(194,118,44)" stroke-width="2"/>
<line x1="261.32" y1="289.25" x2="261.32" y2="301.21" stroke="rgb(194,118,44)" stroke-width="2"/>
<line x1="241.43" y1="258.50" x2="281.21" y2="258.50" stroke="rgb(194,118,44)" stroke-width="2"/>
<line x1="241.43" y1="301.21" x2="281.21" y2="301.21" stroke="rgb(194,118,44)" stroke-width="2"/>
<rect x="241.43" y="276.91" width="39.79" height="12.34" fill="rgb(194,118,44)" fill-opacity="0.28" stroke="rgb(194,118,44)" stroke-width="2"/>
<line x1="241.43" y1="282.52" x2="281.21" y2="282.52" stroke="rgb(194,118,44)" stroke-width="3"/>
<circle cx="198.79" cy="230.01" r="3.0" fill="rgb(38,132,78)" fill-opacity="0.35" stroke="none"/>
<circle cx="201.64" cy="262.18" r="3.0" fill="rgb(38,132,78)" fill-opacity="0.35" stroke="none"/>
<circle cx="204.48" cy="220.90" r="3.0" fill="rgb(38,132,78)" fill-opacity="0.35" stroke="none"/>
<circle cx="207.32" cy="224.21" r="3.0" fill="rgb(38,132,78)" fill-opacity="0.35" stroke="none"/>
<circle cx="210.16" cy="233.77" r="3.0" fill="rgb(38,132,78)" fill-opacity="0.35" stroke="none"/>
<circle cx="213.00" cy="207.77" r="3.0" fill="rgb(38,132,78)" fill-opacity="0.35" stroke="none"/>
<circle cx="215.85" cy="208.79" r="3.0" fill="rgb(38,132,78)" fill-opacity="0.35" stroke="none"/>
<circle cx="198.79" cy="236.18" r="3.0" fill="rgb(38,132,78)" fill-opacity="0.35" stroke="none"/>
<circle cx="201.64" cy="231.87" r="3.0" fill="rgb(38,132,78)" fill-opacity="0.35" stroke="none"/>
<circle cx="204.48" cy="222.59" r="3.0" fill="rgb(38,132,78)" fill-opacity="0.35" stroke="none"/>
<circle cx="207.32" cy="213.01" r="3.0" fill="rgb(38,132,78)" fill-opacity="0.35" stroke="none"/>
<circle cx="210.16" cy="228.25" r="3.0" fill="rgb(38,132,78)" fill-opacity="0.35" stroke="none"/>
<circle cx="213.00" cy="236.55" r="3.0" fill="rgb(38,132,78)" fill-opacity="0.35" stroke="none"/>
<circle cx="215.85" cy="236.96" r="3.0" fill="rgb(38,132,78)" fill-opacity="0.35" stroke="none"/>
<circle cx="198.79" cy="221.46" r="3.0" fill="rgb(38,132,78)" fill-opacity="0.35" stroke="none"/>
<circle cx="201.64" cy="197.14" r="3.0" fill="rgb(38,132,78)" fill-opacity="0.35" stroke="none"/>
<circle cx="204.48" cy="228.45" r="3.0" fill="rgb(38,132,78)" fill-opacity="0.35" stroke="none"/>
<circle cx="207.32" cy="200.65" r="3.0" fill="rgb(38,132,78)" fill-opacity="0.35" stroke="none"/>
<circle cx="210.16" cy="222.06" r="3.0" fill="rgb(38,132,78)" fill-opacity="0.35" stroke="none"/>
<circle cx="213.00" cy="241.68" r="3.0" fill="rgb(38,132,78)" fill-opacity="0.35" stroke="none"/>
<circle cx="215.85" cy="227.55" r="3.0" fill="rgb(38,132,78)" fill-opacity="0.35" stroke="none"/>
<circle cx="198.79" cy="233.01" r="3.0" fill="rgb(38,132,78)" fill-opacity="0.35" stroke="none"/>
<circle cx="201.64" cy="233.43" r="3.0" fill="rgb(38,132,78)" fill-opacity="0.35" stroke="none"/>
<circle cx="204.48" cy="232.46" r="3.0" fill="rgb(38,132,78)" fill-opacity="0.35" stroke="none"/>
<circle cx="207.32" cy="227.10" r="3.0" fill="rgb(38,132,78)" fill-opacity="0.35" stroke="none"/>
<circle cx="210.16" cy="241.22" r="3.0" fill="rgb(38,132,78)" fill-opacity="0.35" stroke="none"/>
<circle cx="213.00" cy="222.58" r="3.0" fill="rgb(38,132,78)" fill-opacity="0.35" stroke="none"/>
<circle cx="215.85" cy="214.62" r="3.0" fill="rgb(38,132,78)" fill-opacity="0.35" stroke="none"/>
<circle cx="198.79" cy="214.37" r="3.0" fill="rgb(38,132,78)" fill-opacity="0.35" stroke="none"/>
<circle cx="201.64" cy="210.98" r="3.0" fill="rgb(38,132,78)" fill-opacity="0.35" stroke="none"/>
<circle cx="204.48" cy="237.15" r="3.0" fill="rgb(38,132,78)" fill-opacity="0.35" stroke="none"/>
<circle cx="207.32" cy="229.12" r="3.0" fill="rgb(38,132,78)" fill-opacity="0.35" stroke="none"/>
<circle cx="210.16" cy="252.70" r="3.0" fill="rgb(38,132,78)" fill-opacity="0.35" stroke="none"/>
<circle cx="213.00" cy="254.44" r="3.0" fill="rgb(38,132,78)" fill-opacity="0.35" stroke="none"/>
<circle cx="215.85" cy="235.59" r="3.0" fill="rgb(38,132,78)" fill-opacity="0.35" stroke="none"/>
<circle cx="198.79" cy="247.42" r="3.0" fill="rgb(38,132,78)" fill-opacity="0.35" stroke="none"/>
<circle cx="201.64" cy="221.73" r="3.0" fill="rgb(38,132,78)" fill-opacity="0.35" stroke="none"/>
<circle cx="204.48" cy="213.62" r="3.0" fill="rgb(38,132,78)" fill-opacity="0.35" stroke="none"/>
<circle cx="207.32" cy="240.16" r="3.0" fill="rgb(38,132,78)" fill-opacity="0.35" stroke="none"/>
<circle cx="210.16" cy="222.38" r="3.0" fill="rgb(38,132,78)" fill-opacity="0.35" stroke="none"/>
<circle cx="213.00" cy="193.76" r="3.0" fill="rgb(38,132,78)" fill-opacity="0.35" stroke="none"/>
<circle cx="215.85" cy="209.74" r="3.0" fill="rgb(38,132,78)" fill-opacity="0.35" stroke="none"/>
<circle cx="198.79" cy="227.78" r="3.0" fill="rgb(38,132,78)" fill-opacity="0.35" stroke="none"/>
<circle cx="201.64" cy="227.31" r="3.0" fill="rgb(38,132,78)" fill-opacity="0.35" stroke="none"/>
<circle cx="204.48" cy="231.20" r="3.0" fill="rgb(38,132,78)" fill-opacity="0.35" stroke="none"/>
<circle cx="207.32" cy="210.43" r="3.0" fill="rgb(38,132,78)" fill-opacity="0.35" stroke="none"/>
<circle cx="210.16" cy="261.30" r="3.0" fill="rgb(38,132,78)" fill-opacity="0.35" stroke="none"/>
<circle cx="213.00" cy="214.46" r="3.0" fill="rgb(38,132,78)" fill-opacity="0.35" stroke="none"/>
<circle cx="215.85" cy="194.50" r="3.0" fill="rgb(38,132,78)" fill-opacity="0.35" stroke="none"/>
<circle cx="198.79" cy="209.60" r="3.0" fill="rgb(38,132,78)" fill-opacity="0.35" stroke="none"/>
<line x1="207.32" y1="193.76" x2="207.32" y2="214.39" stroke="rgb(38,132,78)" stroke-width="2"/>
<line x1="207.32" y1="235.13" x2="207.32" y2="262.18" stroke="rgb(38,132,78)" stroke-width="2"/>
<line x1="187.43" y1="193.76" x2="227.21" y2="193.76" stroke="rgb(38,132,78)" stroke-width="2"/>
<line x1="187.43" y1="262.18" x2="227.21" y2="262.18" stroke="rgb(38,132,78)" stroke-width="2"/>
<rect x="187.43" y="214.39" width="39.79" height="20.74" fill="rgb(38,132,78)" fill-opacity="0.28" stroke="rgb(38,132,78)" stroke-width="2"/>
<line x1="187.43" y1="227.43" x2="227.21" y2="227.43" stroke="rgb(38,132,78)" stroke-width="3"/>
<circle cx="464.47" cy="375.08" r="3.0" fill="rgb(194,118,44)" fill-opacity="0.35" stroke="none"/>
<circle cx="467.32" cy="375.56" r="3.0" fill="rgb(194,118,44)" fill-opacity="0.35" stroke="none"/>
<circle cx="470.16" cy="377.63" r="3.0" fill="rgb(194,118,44)" fill-opacity="0.35" stroke="none"/>
<circle cx="473.00" cy="373.73" r="3.0" fill="rgb(194,118,44)" fill-opacity="0.35" stroke="none"/>
<circle cx="475.84" cy="378.20" r="3.0" fill="rgb(194,118,44)" fill-opacity="0.35" stroke="none"/>
<circle cx="478.68" cy="379.76" r="3.0" fill="rgb(194,118,44)" fill-opacity="0.35" stroke="none"/>
<circle cx="481.53" cy="376.71" r="3.0" fill="rgb(194,118,44)" fill-opacity="0.35" stroke="none"/>
<circle cx="464.47" cy="369.95" r="3.0" fill="rgb(194,118,44)" fill-opacity="0.35" stroke="none"/>
<circle cx="467.32" cy="377.65" r="3.0" fill="rgb(194,118,44)" fill-opacity="0.35" stroke="none"/>
<circle cx="470.16" cy="381.16" r="3.0" fill="rgb(194,118,44)" fill-opacity="0.35" stroke="none"/>
<circle cx="473.00" cy="380.75" r="3.0" fill="rgb(194,118,44)" fill-opacity="0.35" stroke="none"/>
<circle cx="475.84" cy="379.65" r="3.0" fill="rgb(194,118,44)" fill-opacity="0.35" stroke="none"/>
<circle cx="478.68" cy="374.52" r="3.0" fill="rgb(194,118,44)" fill-opacity="0.35" stroke="none"/>
<circle cx="481.53" cy="380.01" r="3.0" fill="rgb(194,118,44)" fill-opacity="0.35" stroke="none"/>
<circle cx="464.47" cy="378.77" r="3.0" fill="rgb(194,118,44)" fill-opacity="0.35" stroke="none"/>
<circle cx="467.32" cy="377.18" r="3.0" fill="rgb(194,118,44)" fill-opacity="0.35" stroke="none"/>
<circle cx="470.16" cy="383.39" r="3.0" fill="rgb(194,118,44)" fill-opacity="0.35" stroke="none"/>
<circle cx="473.00" cy="376.70" r="3.0" fill="rgb(194,118,44)" fill-opacity="0.35" stroke="none"/>
<circle cx="475.84" cy="375.44" r="3.0" fill="rgb(194,118,44)" fill-opacity="0.35" stroke="none"/>
<circle cx="478.68" cy="377.46" r="3.0" fill="rgb(194,118,44)" fill-opacity="0.35" stroke="none"/>
<circle cx="481.53" cy="378.16" r="3.0" fill="rgb(194,118,44)" fill-opacity="0.35" stroke="none"/>
<circle cx="464.47" cy="378.37" r="3.0" fill="rgb(194,118,44)" fill-opacity="0.35" stroke="none"/>
<circle cx="467.32" cy="384.56" r="3.0" fill="rgb(194,118,44)" fill-opacity="0.35" stroke="none"/>
<circle cx="470.16" cy="374.94" r="3.0" fill="rgb(194,118,44)" fill-opacity="0.35" stroke="none"/>
<circle cx="473.00" cy="378.31" r="3.0" fill="rgb(194,118,44)" fill-opacity="0.35" stroke="none"/>
<circle cx="475.84" cy="374.05" r="3.0" fill="rgb(194,118,44)" fill-opacity="0.35" stroke="none"/>
<circle cx="478.68" cy="375.37" r="3.0" fill="rgb(194,118,44)" fill-opacity="0.35" stroke="none"/>
<circle cx="481.53" cy="378.99" r="3.0" fill="rgb(194,118,44)" fill-opacity="0.35" stroke="none"/>
<circle cx="464.47" cy="379.47" r="3.0" fill="rgb(194,118,44)" fill-opacity="0.35" stroke="none"/>
<circle cx="467.32" cy="378.38" r="3.0" fill="rgb(194,118,44)" fill-opacity="0.35" stroke="none"/>
<circle cx="470.16" cy="377.53" r="3.0" fill="rgb(194,118,44)" fill-opacity="0.35" stroke="none"/>
<circle cx="473.00" cy="371.74" r="3.0" fill="rgb(194,118,44)" fill-opacity="0.35" stroke="none"/>
<circle cx="475.84" cy="376.44" r="3.0" fill="rgb(194,118,44)" fill-opacity="0.35" stroke="none"/>
<circle cx="478.68" cy="378.57" r="3.0" fill="rgb(194,118,44)" fill-opacity="0.35" stroke="none"/>
<circle cx="481.53" cy="377.43" r="3.0" fill="rgb(194,118,44)" fill-opacity="0.35" stroke="none"/>
<circle cx="464.47" cy="383.65" r="3.0" fill="rgb(194,118,44)" fill-opacity="0.35" stroke="none"/>
<circle cx="467.32" cy="375.83" r="3.0" fill="rgb(194,118,44)" fill-opacity="0.35" stroke="none"/>
<circle cx="470.16" cy="375.28" r="3.0" fill="rgb(194,118,44)" fill-opacity="0.35" stroke="none"/>
<circle cx="473.00" cy="377.97" r="3.0" fill="rgb(194,118,44)" fill-opacity="0.35" stroke="none"/>
<circle cx="475.84" cy="374.19" r="3.0" fill="rgb(194,118,44)" fill-opacity="0.35" stroke="none"/>
<circle cx="478.68" cy="380.99" r="3.0" fill="rgb(194,118,44)" fill-opacity="0.35" stroke="none"/>
<circle cx="481.53" cy="379.48" r="3.0" fill="rgb(194,118,44)" fill-opacity="0.35" stroke="none"/>
<circle cx="464.47" cy="371.71" r="3.0" fill="rgb(194,118,44)" fill-opacity="0.35" stroke="none"/>
<circle cx="467.32" cy="382.41" r="3.0" fill="rgb(194,118,44)" fill-opacity="0.35" stroke="none"/>
<circle cx="470.16" cy="379.29" r="3.0" fill="rgb(194,118,44)" fill-opacity="0.35" stroke="none"/>
<circle cx="473.00" cy="377.25" r="3.0" fill="rgb(194,118,44)" fill-opacity="0.35" stroke="none"/>
<circle cx="475.84" cy="370.38" r="3.0" fill="rgb(194,118,44)" fill-opacity="0.35" stroke="none"/>
<circle cx="478.68" cy="377.83" r="3.0" fill="rgb(194,118,44)" fill-opacity="0.35" stroke="none"/>
<circle cx="481.53" cy="367.99" r="3.0" fill="rgb(194,118,44)" fill-opacity="0.35" stroke="none"/>
<circle cx="464.47" cy="380.94" r="3.0" fill="rgb(194,118,44)" fill-opacity="0.35" stroke="none"/>
<line x1="473.00" y1="369.95" x2="473.00" y2="375.39" stroke="rgb(194,118,44)" stroke-width="2"/>
<line x1="473.00" y1="379.43" x2="473.00" y2="384.56" stroke="rgb(194,118,44)" stroke-width="2"/>
<line x1="453.11" y1="369.95" x2="492.89" y2="369.95" stroke="rgb(194,118,44)" stroke-width="2"/>
<line x1="453.11" y1="384.56" x2="492.89" y2="384.56" stroke="rgb(194,118,44)" stroke-width="2"/>
<rect x="453.11" y="375.39" width="39.79" height="4.04" fill="rgb(194,118,44)" fill-opacity="0.28" stroke="rgb(194,118,44)" stroke-width="2"/>
<line x1="453.11" y1="377.64" x2="492.89" y2="377.64" stroke="rgb(194,118,44)" stroke-width="3"/>
<circle cx="410.47" cy="111.26" r="3.0" fill="rgb(38,132,78)" fill-opacity="0.35" stroke="none"/>
<circle cx="413.32" cy="164.28" r="3.0" fill="rgb(38,132,78)" fill-opacity="0.35" stroke="none"/>
<circle cx="416.16" cy="125.13" r="3.0" fill="rgb(38,132,78)" fill-opacity="0.35" stroke="none"/>
<circle cx="419.00" cy="120.28" r="3.0" fill="rgb(38,132,78)" fill-opacity="0.35" stroke="none"/>
<circle cx="421.84" cy="133.57" r="3.0" fill="rgb(38,132,78)" fill-opacity="0.35" stroke="none"/>
<circle cx="424.68" cy="116.50" r="3.0" fill="rgb(38,132,78)" fill-opacity="0.35" stroke="none"/>
<circle cx="427.53" cy="94.33" r="3.0" fill="rgb(38,132,78)" fill-opacity="0.35" stroke="none"/>
<circle cx="410.47" cy="122.05" r="3.0" fill="rgb(38,132,78)" fill-opacity="0.35" stroke="none"/>
<circle cx="413.32" cy="133.05" r="3.0" fill="rgb(38,132,78)" fill-opacity="0.35" stroke="none"/>
<circle cx="416.16" cy="127.03" r="3.0" fill="rgb(38,132,78)" fill-opacity="0.35" stroke="none"/>
<circle cx="419.00" cy="107.29" r="3.0" fill="rgb(38,132,78)" fill-opacity="0.35" stroke="none"/>
<circle cx="421.84" cy="120.26" r="3.0" fill="rgb(38,132,78)" fill-opacity="0.35" stroke="none"/>
<circle cx="424.68" cy="125.28" r="3.0" fill="rgb(38,132,78)" fill-opacity="0.35" stroke="none"/>
<circle cx="427.53" cy="137.06" r="3.0" fill="rgb(38,132,78)" fill-opacity="0.35" stroke="none"/>
<circle cx="410.47" cy="112.22" r="3.0" fill="rgb(38,132,78)" fill-opacity="0.35" stroke="none"/>
<circle cx="413.32" cy="111.62" r="3.0" fill="rgb(38,132,78)" fill-opacity="0.35" stroke="none"/>
<circle cx="416.16" cy="102.68" r="3.0" fill="rgb(38,132,78)" fill-opacity="0.35" stroke="none"/>
<circle cx="419.00" cy="103.91" r="3.0" fill="rgb(38,132,78)" fill-opacity="0.35" stroke="none"/>
<circle cx="421.84" cy="72.05" r="3.0" fill="rgb(38,132,78)" fill-opacity="0.35" stroke="none"/>
<circle cx="424.68" cy="116.06" r="3.0" fill="rgb(38,132,78)" fill-opacity="0.35" stroke="none"/>
<circle cx="427.53" cy="132.88" r="3.0" fill="rgb(38,132,78)" fill-opacity="0.35" stroke="none"/>
<circle cx="410.47" cy="132.42" r="3.0" fill="rgb(38,132,78)" fill-opacity="0.35" stroke="none"/>
<circle cx="413.32" cy="135.67" r="3.0" fill="rgb(38,132,78)" fill-opacity="0.35" stroke="none"/>
<circle cx="416.16" cy="127.29" r="3.0" fill="rgb(38,132,78)" fill-opacity="0.35" stroke="none"/>
<circle cx="419.00" cy="122.43" r="3.0" fill="rgb(38,132,78)" fill-opacity="0.35" stroke="none"/>
<circle cx="421.84" cy="153.30" r="3.0" fill="rgb(38,132,78)" fill-opacity="0.35" stroke="none"/>
<circle cx="424.68" cy="98.85" r="3.0" fill="rgb(38,132,78)" fill-opacity="0.35" stroke="none"/>
<circle cx="427.53" cy="128.48" r="3.0" fill="rgb(38,132,78)" fill-opacity="0.35" stroke="none"/>
<circle cx="410.47" cy="109.59" r="3.0" fill="rgb(38,132,78)" fill-opacity="0.35" stroke="none"/>
<circle cx="413.32" cy="104.72" r="3.0" fill="rgb(38,132,78)" fill-opacity="0.35" stroke="none"/>
<circle cx="416.16" cy="143.75" r="3.0" fill="rgb(38,132,78)" fill-opacity="0.35" stroke="none"/>
<circle cx="419.00" cy="87.77" r="3.0" fill="rgb(38,132,78)" fill-opacity="0.35" stroke="none"/>
<circle cx="421.84" cy="164.52" r="3.0" fill="rgb(38,132,78)" fill-opacity="0.35" stroke="none"/>
<circle cx="424.68" cy="165.22" r="3.0" fill="rgb(38,132,78)" fill-opacity="0.35" stroke="none"/>
<circle cx="427.53" cy="134.48" r="3.0" fill="rgb(38,132,78)" fill-opacity="0.35" stroke="none"/>
<circle cx="410.47" cy="158.71" r="3.0" fill="rgb(38,132,78)" fill-opacity="0.35" stroke="none"/>
<circle cx="413.32" cy="133.11" r="3.0" fill="rgb(38,132,78)" fill-opacity="0.35" stroke="none"/>
<circle cx="416.16" cy="110.47" r="3.0" fill="rgb(38,132,78)" fill-opacity="0.35" stroke="none"/>
<circle cx="419.00" cy="139.74" r="3.0" fill="rgb(38,132,78)" fill-opacity="0.35" stroke="none"/>
<circle cx="421.84" cy="113.64" r="3.0" fill="rgb(38,132,78)" fill-opacity="0.35" stroke="none"/>
<circle cx="424.68" cy="72.43" r="3.0" fill="rgb(38,132,78)" fill-opacity="0.35" stroke="none"/>
<circle cx="427.53" cy="112.65" r="3.0" fill="rgb(38,132,78)" fill-opacity="0.35" stroke="none"/>
<circle cx="410.47" cy="127.56" r="3.0" fill="rgb(38,132,78)" fill-opacity="0.35" stroke="none"/>
<circle cx="413.32" cy="133.88" r="3.0" fill="rgb(38,132,78)" fill-opacity="0.35" stroke="none"/>
<circle cx="416.16" cy="135.90" r="3.0" fill="rgb(38,132,78)" fill-opacity="0.35" stroke="none"/>
<circle cx="419.00" cy="121.88" r="3.0" fill="rgb(38,132,78)" fill-opacity="0.35" stroke="none"/>
<circle cx="421.84" cy="179.95" r="3.0" fill="rgb(38,132,78)" fill-opacity="0.35" stroke="none"/>
<circle cx="424.68" cy="130.62" r="3.0" fill="rgb(38,132,78)" fill-opacity="0.35" stroke="none"/>
<circle cx="427.53" cy="100.51" r="3.0" fill="rgb(38,132,78)" fill-opacity="0.35" stroke="none"/>
<circle cx="410.47" cy="117.14" r="3.0" fill="rgb(38,132,78)" fill-opacity="0.35" stroke="none"/>
<line x1="419.00" y1="87.77" x2="419.00" y2="111.35" stroke="rgb(38,132,78)" stroke-width="2"/>
<line x1="419.00" y1="133.80" x2="419.00" y2="165.22" stroke="rgb(38,132,78)" stroke-width="2"/>
<line x1="399.11" y1="87.77" x2="438.89" y2="87.77" stroke="rgb(38,132,78)" stroke-width="2"/>
<line x1="399.11" y1="165.22" x2="438.89" y2="165.22" stroke="rgb(38,132,78)" stroke-width="2"/>
<rect x="399.11" y="111.35" width="39.79" height="22.45" fill="rgb(38,132,78)" fill-opacity="0.28" stroke="rgb(38,132,78)" stroke-width="2"/>
<line x1="399.11" y1="123.78" x2="438.89" y2="123.78" stroke="rgb(38,132,78)" stroke-width="3"/>
<circle cx="676.15" cy="397.51" r="3.0" fill="rgb(194,118,44)" fill-opacity="0.35" stroke="none"/>
<circle cx="679.00" cy="399.45" r="3.0" fill="rgb(194,118,44)" fill-opacity="0.35" stroke="none"/>
<circle cx="681.84" cy="396.18" r="3.0" fill="rgb(194,118,44)" fill-opacity="0.35" stroke="none"/>
<circle cx="684.68" cy="399.42" r="3.0" fill="rgb(194,118,44)" fill-opacity="0.35" stroke="none"/>
<circle cx="687.52" cy="396.20" r="3.0" fill="rgb(194,118,44)" fill-opacity="0.35" stroke="none"/>
<circle cx="690.36" cy="397.97" r="3.0" fill="rgb(194,118,44)" fill-opacity="0.35" stroke="none"/>
<circle cx="693.21" cy="395.63" r="3.0" fill="rgb(194,118,44)" fill-opacity="0.35" stroke="none"/>
<circle cx="676.15" cy="399.40" r="3.0" fill="rgb(194,118,44)" fill-opacity="0.35" stroke="none"/>
<circle cx="679.00" cy="397.94" r="3.0" fill="rgb(194,118,44)" fill-opacity="0.35" stroke="none"/>
<circle cx="681.84" cy="396.57" r="3.0" fill="rgb(194,118,44)" fill-opacity="0.35" stroke="none"/>
<circle cx="684.68" cy="396.37" r="3.0" fill="rgb(194,118,44)" fill-opacity="0.35" stroke="none"/>
<circle cx="687.52" cy="395.15" r="3.0" fill="rgb(194,118,44)" fill-opacity="0.35" stroke="none"/>
<circle cx="690.36" cy="400.58" r="3.0" fill="rgb(194,118,44)" fill-opacity="0.35" stroke="none"/>
<circle cx="693.21" cy="398.96" r="3.0" fill="rgb(194,118,44)" fill-opacity="0.35" stroke="none"/>
<circle cx="676.15" cy="395.64" r="3.0" fill="rgb(194,118,44)" fill-opacity="0.35" stroke="none"/>
<circle cx="679.00" cy="397.15" r="3.0" fill="rgb(194,118,44)" fill-opacity="0.35" stroke="none"/>
<circle cx="681.84" cy="398.56" r="3.0" fill="rgb(194,118,44)" fill-opacity="0.35" stroke="none"/>
<circle cx="684.68" cy="397.75" r="3.0" fill="rgb(194,118,44)" fill-opacity="0.35" stroke="none"/>
<circle cx="687.52" cy="395.21" r="3.0" fill="rgb(194,118,44)" fill-opacity="0.35" stroke="none"/>
<circle cx="690.36" cy="398.24" r="3.0" fill="rgb(194,118,44)" fill-opacity="0.35" stroke="none"/>
<circle cx="693.21" cy="398.67" r="3.0" fill="rgb(194,118,44)" fill-opacity="0.35" stroke="none"/>
<circle cx="676.15" cy="395.49" r="3.0" fill="rgb(194,118,44)" fill-opacity="0.35" stroke="none"/>
<circle cx="679.00" cy="393.71" r="3.0" fill="rgb(194,118,44)" fill-opacity="0.35" stroke="none"/>
<circle cx="681.84" cy="398.44" r="3.0" fill="rgb(194,118,44)" fill-opacity="0.35" stroke="none"/>
<circle cx="684.68" cy="396.97" r="3.0" fill="rgb(194,118,44)" fill-opacity="0.35" stroke="none"/>
<circle cx="687.52" cy="394.78" r="3.0" fill="rgb(194,118,44)" fill-opacity="0.35" stroke="none"/>
<circle cx="690.36" cy="397.67" r="3.0" fill="rgb(194,118,44)" fill-opacity="0.35" stroke="none"/>
<circle cx="693.21" cy="395.65" r="3.0" fill="rgb(194,118,44)" fill-opacity="0.35" stroke="none"/>
<circle cx="676.15" cy="397.80" r="3.0" fill="rgb(194,118,44)" fill-opacity="0.35" stroke="none"/>
<circle cx="679.00" cy="397.15" r="3.0" fill="rgb(194,118,44)" fill-opacity="0.35" stroke="none"/>
<circle cx="681.84" cy="400.65" r="3.0" fill="rgb(194,118,44)" fill-opacity="0.35" stroke="none"/>
<circle cx="684.68" cy="396.64" r="3.0" fill="rgb(194,118,44)" fill-opacity="0.35" stroke="none"/>
<circle cx="687.52" cy="397.77" r="3.0" fill="rgb(194,118,44)" fill-opacity="0.35" stroke="none"/>
<circle cx="690.36" cy="400.25" r="3.0" fill="rgb(194,118,44)" fill-opacity="0.35" stroke="none"/>
<circle cx="693.21" cy="398.87" r="3.0" fill="rgb(194,118,44)" fill-opacity="0.35" stroke="none"/>
<circle cx="676.15" cy="395.87" r="3.0" fill="rgb(194,118,44)" fill-opacity="0.35" stroke="none"/>
<circle cx="679.00" cy="397.58" r="3.0" fill="rgb(194,118,44)" fill-opacity="0.35" stroke="none"/>
<circle cx="681.84" cy="400.32" r="3.0" fill="rgb(194,118,44)" fill-opacity="0.35" stroke="none"/>
<circle cx="684.68" cy="398.52" r="3.0" fill="rgb(194,118,44)" fill-opacity="0.35" stroke="none"/>
<circle cx="687.52" cy="397.34" r="3.0" fill="rgb(194,118,44)" fill-opacity="0.35" stroke="none"/>
<circle cx="690.36" cy="395.35" r="3.0" fill="rgb(194,118,44)" fill-opacity="0.35" stroke="none"/>
<circle cx="693.21" cy="392.71" r="3.0" fill="rgb(194,118,44)" fill-opacity="0.35" stroke="none"/>
<circle cx="676.15" cy="400.46" r="3.0" fill="rgb(194,118,44)" fill-opacity="0.35" stroke="none"/>
<circle cx="679.00" cy="400.08" r="3.0" fill="rgb(194,118,44)" fill-opacity="0.35" stroke="none"/>
<circle cx="681.84" cy="398.41" r="3.0" fill="rgb(194,118,44)" fill-opacity="0.35" stroke="none"/>
<circle cx="684.68" cy="396.71" r="3.0" fill="rgb(194,118,44)" fill-opacity="0.35" stroke="none"/>
<circle cx="687.52" cy="401.32" r="3.0" fill="rgb(194,118,44)" fill-opacity="0.35" stroke="none"/>
<circle cx="690.36" cy="397.33" r="3.0" fill="rgb(194,118,44)" fill-opacity="0.35" stroke="none"/>
<circle cx="693.21" cy="394.93" r="3.0" fill="rgb(194,118,44)" fill-opacity="0.35" stroke="none"/>
<circle cx="676.15" cy="395.61" r="3.0" fill="rgb(194,118,44)" fill-opacity="0.35" stroke="none"/>
<line x1="684.68" y1="392.71" x2="684.68" y2="395.94" stroke="rgb(194,118,44)" stroke-width="2"/>
<line x1="684.68" y1="398.64" x2="684.68" y2="401.32" stroke="rgb(194,118,44)" stroke-width="2"/>
<line x1="664.79" y1="392.71" x2="704.57" y2="392.71" stroke="rgb(194,118,44)" stroke-width="2"/>
<line x1="664.79" y1="401.32" x2="704.57" y2="401.32" stroke="rgb(194,118,44)" stroke-width="2"/>
<rect x="664.79" y="395.94" width="39.79" height="2.70" fill="rgb(194,118,44)" fill-opacity="0.28" stroke="rgb(194,118,44)" stroke-width="2"/>
<line x1="664.79" y1="397.54" x2="704.57" y2="397.54" stroke="rgb(194,118,44)" stroke-width="3"/>
<circle cx="622.15" cy="390.69" r="3.0" fill="rgb(38,132,78)" fill-opacity="0.35" stroke="none"/>
<circle cx="625.00" cy="388.61" r="3.0" fill="rgb(38,132,78)" fill-opacity="0.35" stroke="none"/>
<circle cx="627.84" cy="393.61" r="3.0" fill="rgb(38,132,78)" fill-opacity="0.35" stroke="none"/>
<circle cx="630.68" cy="390.86" r="3.0" fill="rgb(38,132,78)" fill-opacity="0.35" stroke="none"/>
<circle cx="633.52" cy="392.75" r="3.0" fill="rgb(38,132,78)" fill-opacity="0.35" stroke="none"/>
<circle cx="636.36" cy="394.85" r="3.0" fill="rgb(38,132,78)" fill-opacity="0.35" stroke="none"/>
<circle cx="639.21" cy="393.16" r="3.0" fill="rgb(38,132,78)" fill-opacity="0.35" stroke="none"/>
<circle cx="622.15" cy="392.18" r="3.0" fill="rgb(38,132,78)" fill-opacity="0.35" stroke="none"/>
<circle cx="625.00" cy="394.63" r="3.0" fill="rgb(38,132,78)" fill-opacity="0.35" stroke="none"/>
<circle cx="627.84" cy="394.12" r="3.0" fill="rgb(38,132,78)" fill-opacity="0.35" stroke="none"/>
<circle cx="630.68" cy="392.46" r="3.0" fill="rgb(38,132,78)" fill-opacity="0.35" stroke="none"/>
<circle cx="633.52" cy="391.77" r="3.0" fill="rgb(38,132,78)" fill-opacity="0.35" stroke="none"/>
<circle cx="636.36" cy="391.41" r="3.0" fill="rgb(38,132,78)" fill-opacity="0.35" stroke="none"/>
<circle cx="639.21" cy="391.29" r="3.0" fill="rgb(38,132,78)" fill-opacity="0.35" stroke="none"/>
<circle cx="622.15" cy="391.11" r="3.0" fill="rgb(38,132,78)" fill-opacity="0.35" stroke="none"/>
<circle cx="625.00" cy="394.25" r="3.0" fill="rgb(38,132,78)" fill-opacity="0.35" stroke="none"/>
<circle cx="627.84" cy="389.19" r="3.0" fill="rgb(38,132,78)" fill-opacity="0.35" stroke="none"/>
<circle cx="630.68" cy="394.29" r="3.0" fill="rgb(38,132,78)" fill-opacity="0.35" stroke="none"/>
<circle cx="633.52" cy="389.97" r="3.0" fill="rgb(38,132,78)" fill-opacity="0.35" stroke="none"/>
<circle cx="636.36" cy="391.88" r="3.0" fill="rgb(38,132,78)" fill-opacity="0.35" stroke="none"/>
<circle cx="639.21" cy="389.90" r="3.0" fill="rgb(38,132,78)" fill-opacity="0.35" stroke="none"/>
<circle cx="622.15" cy="392.20" r="3.0" fill="rgb(38,132,78)" fill-opacity="0.35" stroke="none"/>
<circle cx="625.00" cy="388.73" r="3.0" fill="rgb(38,132,78)" fill-opacity="0.35" stroke="none"/>
<circle cx="627.84" cy="392.77" r="3.0" fill="rgb(38,132,78)" fill-opacity="0.35" stroke="none"/>
<circle cx="630.68" cy="393.27" r="3.0" fill="rgb(38,132,78)" fill-opacity="0.35" stroke="none"/>
<circle cx="633.52" cy="392.52" r="3.0" fill="rgb(38,132,78)" fill-opacity="0.35" stroke="none"/>
<circle cx="636.36" cy="390.56" r="3.0" fill="rgb(38,132,78)" fill-opacity="0.35" stroke="none"/>
<circle cx="639.21" cy="393.07" r="3.0" fill="rgb(38,132,78)" fill-opacity="0.35" stroke="none"/>
<circle cx="622.15" cy="395.29" r="3.0" fill="rgb(38,132,78)" fill-opacity="0.35" stroke="none"/>
<circle cx="625.00" cy="389.84" r="3.0" fill="rgb(38,132,78)" fill-opacity="0.35" stroke="none"/>
<circle cx="627.84" cy="389.64" r="3.0" fill="rgb(38,132,78)" fill-opacity="0.35" stroke="none"/>
<circle cx="630.68" cy="389.63" r="3.0" fill="rgb(38,132,78)" fill-opacity="0.35" stroke="none"/>
<circle cx="633.52" cy="388.19" r="3.0" fill="rgb(38,132,78)" fill-opacity="0.35" stroke="none"/>
<circle cx="636.36" cy="390.21" r="3.0" fill="rgb(38,132,78)" fill-opacity="0.35" stroke="none"/>
<circle cx="639.21" cy="390.00" r="3.0" fill="rgb(38,132,78)" fill-opacity="0.35" stroke="none"/>
<circle cx="622.15" cy="392.38" r="3.0" fill="rgb(38,132,78)" fill-opacity="0.35" stroke="none"/>
<circle cx="625.00" cy="390.96" r="3.0" fill="rgb(38,132,78)" fill-opacity="0.35" stroke="none"/>
<circle cx="627.84" cy="392.70" r="3.0" fill="rgb(38,132,78)" fill-opacity="0.35" stroke="none"/>
<circle cx="630.68" cy="389.11" r="3.0" fill="rgb(38,132,78)" fill-opacity="0.35" stroke="none"/>
<circle cx="633.52" cy="391.84" r="3.0" fill="rgb(38,132,78)" fill-opacity="0.35" stroke="none"/>
<circle cx="636.36" cy="393.90" r="3.0" fill="rgb(38,132,78)" fill-opacity="0.35" stroke="none"/>
<circle cx="639.21" cy="392.86" r="3.0" fill="rgb(38,132,78)" fill-opacity="0.35" stroke="none"/>
<circle cx="622.15" cy="391.71" r="3.0" fill="rgb(38,132,78)" fill-opacity="0.35" stroke="none"/>
<circle cx="625.00" cy="393.79" r="3.0" fill="rgb(38,132,78)" fill-opacity="0.35" stroke="none"/>
<circle cx="627.84" cy="391.08" r="3.0" fill="rgb(38,132,78)" fill-opacity="0.35" stroke="none"/>
<circle cx="630.68" cy="392.60" r="3.0" fill="rgb(38,132,78)" fill-opacity="0.35" stroke="none"/>
<circle cx="633.52" cy="387.12" r="3.0" fill="rgb(38,132,78)" fill-opacity="0.35" stroke="none"/>
<circle cx="636.36" cy="390.90" r="3.0" fill="rgb(38,132,78)" fill-opacity="0.35" stroke="none"/>
<circle cx="639.21" cy="394.16" r="3.0" fill="rgb(38,132,78)" fill-opacity="0.35" stroke="none"/>
<circle cx="622.15" cy="389.99" r="3.0" fill="rgb(38,132,78)" fill-opacity="0.35" stroke="none"/>
<line x1="630.68" y1="387.12" x2="630.68" y2="390.05" stroke="rgb(38,132,78)" stroke-width="2"/>
<line x1="630.68" y1="393.02" x2="630.68" y2="395.29" stroke="rgb(38,132,78)" stroke-width="2"/>
<line x1="610.79" y1="387.12" x2="650.57" y2="387.12" stroke="rgb(38,132,78)" stroke-width="2"/>
<line x1="610.79" y1="395.29" x2="650.57" y2="395.29" stroke="rgb(38,132,78)" stroke-width="2"/>
<rect x="610.79" y="390.05" width="39.79" height="2.97" fill="rgb(38,132,78)" fill-opacity="0.28" stroke="rgb(38,132,78)" stroke-width="2"/>
<line x1="610.79" y1="391.81" x2="650.57" y2="391.81" stroke="rgb(38,132,78)" stroke-width="3"/>
<text x="234.32" y="440" text-anchor="middle" font-size="13" font-family="Helvetica, Arial, sans-serif">Default RPC</text>
<text x="446.00" y="440" text-anchor="middle" font-size="13" font-family="Helvetica, Arial, sans-serif">Manual GCP</text>
<text x="657.68" y="440" text-anchor="middle" font-size="13" font-family="Helvetica, Arial, sans-serif">Gradient-Magnitude</text>
<rect x="595" y="32" width="14" height="14" fill="rgb(194,118,44)" stroke="none"/>
<text x="617" y="43" font-size="13" font-family="Helvetica, Arial, sans-serif" fill="#333333">Dry Forest</text>
<rect x="595" y="56" width="14" height="14" fill="rgb(38,132,78)" stroke="none"/>
<text x="617" y="67" font-size="13" font-family="Helvetica, Arial, sans-serif" fill="#333333">Wet Forest</text>
</svg>