<?xml version="1.0" encoding="UTF-8"?>
<svg xmlns="http://www.w3.org/2000/svg" width="820" height="520" viewBox="0 0 820 520">
<rect width="100%" height="100%" fill="white"/>
<line x1="90" y1="36" x2="90" y2="434" stroke="#222222" stroke-width="1.2"/>
<line x1="90" y1="434" x2="784" y2="434" stroke="#222222" stroke-width="1.2"/>
<text x="28" y="235.0" font-size="16" font-family="Helvetica, Arial, sans-serif" transform="rotate(-90 28 235.0)">Boundary RMSE (m)</text>
<text x="410.0" y="502" text-anchor="middle" font-size="14" font-family="Helvetica, Arial, sans-serif" fill="#444444">n = 50 crowns</text>
<line x1="90" y1="434.00" x2="784" y2="434.00" stroke="#e2e2e2" stroke-width="1"/>
<text x="80" y="439.00" text-anchor="end" font-size="13" font-family="Helvetica, Arial, sans-serif" fill="#444444">0.00</text>
<line x1="90" y1="360.30" x2="784" y2="360.30" stroke="#e2e2e2" stroke-width="1"/>
<text x="80" y="365.30" text-anchor="end" font-size="13" font-family="Helvetica, Arial, sans-serif" fill="#444444">0.50</text>
<line x1="90" y1="286.59" x2="784" y2="286.59" stroke="#e2e2e2" stroke-width="1"/>
<text x="80" y="291.59" text-anchor="end" font-size="13" font-family="Helvetica, Arial, sans-serif" fill="#444444">1.00</text>
<line x1="90" y1="212.89" x2="784" y2="212.89" stroke="#e2e2e2" stroke-width="1"/>
<text x="80" y="217.89" text-anchor="end" font-size="13" font-family="Helvetica, Arial, sans-serif" fill="#444444">1.50</text>
<line x1="90" y1="139.19" x2="784" y2="139.19" stroke="#e2e2e2" stroke-width="1"/>
<text x="80" y="144.19" text-anchor="end" font-size="13" font-family="Helvetica, Arial, sans-serif" fill="#444444">2.00</text>
<line x1="90" y1="65.48" x2="784" y2="65.48" stroke="#e2e2e2" stroke-width="1"/>
<text x="80" y="70.48" text-anchor="end" font-size="13" font-family="Helvetica, Arial, sans-serif" fill="#444444">2.50</text>
<circle cx="196.65" cy="187.81" r="3.0" fill="rgb(110,110,110)" fill-opacity="0.35" stroke="none"/>
<circle cx="199.66" cy="214.54" r="3.0" fill="rgb(110,110,110)" fill-opacity="0.35" stroke="none"/>
<circle cx="202.66" cy="197.99" r="3.0" fill="rgb(110,110,110)" fill-opacity="0.35" stroke="none"/>
<circle cx="205.67" cy="189.19" r="3.0" fill="rgb(110,110,110)" fill-opacity="0.35" stroke="none"/>
<circle cx="208.67" cy="148.81" r="3.0" fill="rgb(110,110,110)" fill-opacity="0.35" stroke="none"/>
<circle cx="211.68" cy="198.42" r="3.0" fill="rgb(110,110,110)" fill-opacity="0.35" stroke="none"/>
<circle cx="214.68" cy="193.51" r="3.0" fill="rgb(110,110,110)" fill-opacity="0.35" stroke="none"/>
<circle cx="196.65" cy="156.98" r="3.0" fill="rgb(110,110,110)" fill-opacity="0.35" stroke="none"/>
<circle cx="199.66" cy="216.01" r="3.0" fill="rgb(110,110,110)" fill-opacity="0.35" stroke="none"/>
<circle cx="202.66" cy="213.11" r="3.0" fill="rgb(110,110,110)" fill-opacity="0.35" stroke="none"/>
<circle cx="205.67" cy="194.21" r="3.0" fill="rgb(110,110,110)" fill-opacity="0.35" stroke="none"/>
<circle cx="208.67" cy="183.71" r="3.0" fill="rgb(110,110,110)" fill-opacity="0.35" stroke="none"/>
<circle cx="211.68" cy="145.85" r="3.0" fill="rgb(110,110,110)" fill-opacity="0.35" stroke="none"/>
<circle cx="214.68" cy="212.94" r="3.0" fill="rgb(110,110,110)" fill-opacity="0.35" stroke="none"/>
<circle cx="196.65" cy="184.55" r="3.0" fill="rgb(110,110,110)" fill-opacity="0.35" stroke="none"/>
<circle cx="199.66" cy="188.20" r="3.0" fill="rgb(110,110,110)" fill-opacity="0.35" stroke="none"/>
<circle cx="202.66" cy="226.47" r="3.0" fill="rgb(110,110,110)" fill-opacity="0.35" stroke="none"/>
<circle cx="205.67" cy="220.09" r="3.0" fill="rgb(110,110,110)" fill-opacity="0.35" stroke="none"/>
<circle cx="208.67" cy="188.97" r="3.0" fill="rgb(110,110,110)" fill-opacity="0.35" stroke="none"/>
<circle cx="211.68" cy="194.76" r="3.0" fill="rgb(110,110,110)" fill-opacity="0.35" stroke="none"/>
<circle cx="214.68" cy="138.84" r="3.0" fill="rgb(110,110,110)" fill-opacity="0.35" stroke="none"/>
<circle cx="196.65" cy="203.71" r="3.0" fill="rgb(110,110,110)" fill-opacity="0.35" stroke="none"/>
<circle cx="199.66" cy="213.83" r="3.0" fill="rgb(110,110,110)" fill-opacity="0.35" stroke="none"/>
<circle cx="202.66" cy="179.50" r="3.0" fill="rgb(110,110,110)" fill-opacity="0.35" stroke="none"/>
<circle cx="205.67" cy="212.32" r="3.0" fill="rgb(110,110,110)" fill-opacity="0.35" stroke="none"/>
<circle cx="208.67" cy="204.66" r="3.0" fill="rgb(110,110,110)" fill-opacity="0.35" stroke="none"/>
<circle cx="211.68" cy="160.52" r="3.0" fill="rgb(110,110,110)" fill-opacity="0.35" stroke="none"/>
<circle cx="214.68" cy="186.41" r="3.0" fill="rgb(110,110,110)" fill-opacity="0.35" stroke="none"/>
<circle cx="196.65" cy="197.62" r="3.0" fill="rgb(110,110,110)" fill-opacity="0.35" stroke="none"/>
<circle cx="199.66" cy="184.13" r="3.0" fill="rgb(110,110,110)" fill-opacity="0.35" stroke="none"/>
<circle cx="202.66" cy="217.68" r="3.0" fill="rgb(110,110,110)" fill-opacity="0.35" stroke="none"/>
<circle cx="205.67" cy="174.27" r="3.0" fill="rgb(110,110,110)" fill-opacity="0.35" stroke="none"/>
<circle cx="208.67" cy="181.26" r="3.0" fill="rgb(110,110,110)" fill-opacity="0.35" stroke="none"/>
<circle cx="211.68" cy="167.47" r="3.0" fill="rgb(110,110,110)" fill-opacity="0.35" stroke="none"/>
<circle cx="214.68" cy="194.85" r="3.0" fill="rgb(110,110,110)" fill-opacity="0.35" stroke="none"/>
<circle cx="196.65" cy="245.12" r="3.0" fill="rgb(110,110,110)" fill-opacity="0.35" stroke="none"/>
<circle cx="199.66" cy="222.98" r="3.0" fill="rgb(110,110,110)" fill-opacity="0.35" stroke="none"/>
<circle cx="202.66" cy="203.47" r="3.0" fill="rgb(110,110,110)" fill-opacity="0.35" stroke="none"/>
<circle cx="205.67" cy="217.44" r="3.0" fill="rgb(110,110,110)" fill-opacity="0.35" stroke="none"/>
<circle cx="208.67" cy="226.92" r="3.0" fill="rgb(110,110,110)" fill-opacity="0.35" stroke="none"/>
<circle cx="211.68" cy="241.19" r="3.0" fill="rgb(110,110,110)" fill-opacity="0.35" stroke="none"/>
<circle cx="214.68" cy="213.13" r="3.0" fill="rgb(110,110,110)" fill-opacity="0.35" stroke="none"/>
<circle cx="196.65" cy="180.81" r="3.0" fill="rgb(110,110,110)" fill-opacity="0.35" stroke="none"/>
<circle cx="199.66" cy="141.52" r="3.0" fill="rgb(110,110,110)" fill-opacity="0.35" stroke="none"/>
<circle cx="202.66" cy="152.24" r="3.0" fill="rgb(110,110,110)" fill-opacity="0.35" stroke="none"/>
<circle cx="205.67" cy="154.50" r="3.0" fill="rgb(110,110,110)" fill-opacity="0.35" stroke="none"/>
<circle cx="208.67" cy="127.03" r="3.0" fill="rgb(110,110,110)" fill-opacity="0.35" stroke="none"/>
<circle cx="211.68" cy="247.82" r="3.0" fill="rgb(110,110,110)" fill-opacity="0.35" stroke="none"/>
<circle cx="214.68" cy="72.52" r="3.0" fill="rgb(110,110,110)" fill-opacity="0.35" stroke="none"/>
<circle cx="196.65" cy="186.53" r="3.0" fill="rgb(110,110,110)" fill-opacity="0.35" stroke="none"/>
<line x1="205.67" y1="138.84" x2="205.67" y2="179.83" stroke="rgb(110,110,110)" stroke-width="2"/>
<line x1="205.67" y1="213.12" x2="205.67" y2="247.82" stroke="rgb(110,110,110)" stroke-width="2"/>
<line x1="184.64" y1="138.84" x2="226.70" y2="138.84" stroke="rgb(110,110,110)" stroke-width="2"/>
<line x1="184.64" y1="247.82" x2="226.70" y2="247.82" stroke="rgb(110,110,110)" stroke-width="2"/>
<rect x="184.64" y="179.83" width="42.06" height="33.30" fill="rgb(110,110,110)" fill-opacity="0.28" stroke="rgb(110,110,110)" stroke-width="2"/>
<line x1="184.64" y1="193.86" x2="226.70" y2="193.86" stroke="rgb(110,110,110)" stroke-width="3"/>
<text x="205.67" y="462" text-anchor="middle" font-size="14" font-family="Helvetica, Arial, sans-serif">No alignment</text>
<circle cx="427.99" cy="343.94" r="3.0" fill="rgb(214,126,44)" fill-opacity="0.35" stroke="none"/>
<circle cx="430.99" cy="354.24" r="3.0" fill="rgb(214,126,44)" fill-opacity="0.35" stroke="none"/>
<circle cx="434.00" cy="354.34" r="3.0" fill="rgb(214,126,44)" fill-opacity="0.35" stroke="none"/>
<circle cx="437.00" cy="345.53" r="3.0" fill="rgb(214,126,44)" fill-opacity="0.35" stroke="none"/>
<circle cx="440.00" cy="341.19" r="3.0" fill="rgb(214,126,44)" fill-opacity="0.35" stroke="none"/>
<circle cx="443.01" cy="352.97" r="3.0" fill="rgb(214,126,44)" fill-opacity="0.35" stroke="none"/>
<circle cx="446.01" cy="357.91" r="3.0" fill="rgb(214,126,44)" fill-opacity="0.35" stroke="none"/>
<circle cx="427.99" cy="343.99" r="3.0" fill="rgb(214,126,44)" fill-opacity="0.35" stroke="none"/>
<circle cx="430.99" cy="358.52" r="3.0" fill="rgb(214,126,44)" fill-opacity="0.35" stroke="none"/>
<circle cx="434.00" cy="356.68" r="3.0" fill="rgb(214,126,44)" fill-opacity="0.35" stroke="none"/>
<circle cx="437.00" cy="356.41" r="3.0" fill="rgb(214,126,44)" fill-opacity="0.35" stroke="none"/>
<circle cx="440.00" cy="350.15" r="3.0" fill="rgb(214,126,44)" fill-opacity="0.35" stroke="none"/>
<circle cx="443.01" cy="344.04" r="3.0" fill="rgb(214,126,44)" fill-opacity="0.35" stroke="none"/>
<circle cx="446.01" cy="354.64" r="3.0" fill="rgb(214,126,44)" fill-opacity="0.35" stroke="none"/>
<circle cx="427.99" cy="347.10" r="3.0" fill="rgb(214,126,44)" fill-opacity="0.35" stroke="none"/>
<circle cx="430.99" cy="348.47" r="3.0" fill="rgb(214,126,44)" fill-opacity="0.35" stroke="none"/>
<circle cx="434.00" cy="358.30" r="3.0" fill="rgb(214,126,44)" fill-opacity="0.35" stroke="none"/>
<circle cx="437.00" cy="361.05" r="3.0" fill="rgb(214,126,44)" fill-opacity="0.35" stroke="none"/>
<circle cx="440.00" cy="325.63" r="3.0" fill="rgb(214,126,44)" fill-opacity="0.35" stroke="none"/>
<circle cx="443.01" cy="350.97" r="3.0" fill="rgb(214,126,44)" fill-opacity="0.35" stroke="none"/>
<circle cx="446.01" cy="338.91" r="3.0" fill="rgb(214,126,44)" fill-opacity="0.35" stroke="none"/>
<circle cx="427.99" cy="349.47" r="3.0" fill="rgb(214,126,44)" fill-opacity="0.35" stroke="none"/>
<circle cx="430.99" cy="354.59" r="3.0" fill="rgb(214,126,44)" fill-opacity="0.35" stroke="none"/>
<circle cx="434.00" cy="343.92" r="3.0" fill="rgb(214,126,44)" fill-opacity="0.35" stroke="none"/>
<circle cx="437.00" cy="356.41" r="3.0" fill="rgb(214,126,44)" fill-opacity="0.35" stroke="none"/>
<circle cx="440.00" cy="356.12" r="3.0" fill="rgb(214,126,44)" fill-opacity="0.35" stroke="none"/>
<circle cx="443.01" cy="343.97" r="3.0" fill="rgb(214,126,44)" fill-opacity="0.35" stroke="none"/>
<circle cx="446.01" cy="351.38" r="3.0" fill="rgb(214,126,44)" fill-opacity="0.35" stroke="none"/>
<circle cx="427.99" cy="355.61" r="3.0" fill="rgb(214,126,44)" fill-opacity="0.35" stroke="none"/>
<circle cx="430.99" cy="346.79" r="3.0" fill="rgb(214,126,44)" fill-opacity="0.35" stroke="none"/>
<circle cx="434.00" cy="367.06" r="3.0" fill="rgb(214,126,44)" fill-opacity="0.35" stroke="none"/>
<circle cx="437.00" cy="344.75" r="3.0" fill="rgb(214,126,44)" fill-opacity="0.35" stroke="none"/>
<circle cx="440.00" cy="358.69" r="3.0" fill="rgb(214,126,44)" fill-opacity="0.35" stroke="none"/>
<circle cx="443.01" cy="348.39" r="3.0" fill="rgb(214,126,44)" fill-opacity="0.35" stroke="none"/>
<circle cx="446.01" cy="358.92" r="3.0" fill="rgb(214,126,44)" fill-opacity="0.35" stroke="none"/>
<circle cx="427.99" cy="375.93" r="3.0" fill="rgb(214,126,44)" fill-opacity="0.35" stroke="none"/>
<circle cx="430.99" cy="374.09" r="3.0" fill="rgb(214,126,44)" fill-opacity="0.35" stroke="none"/>
<circle cx="434.00" cy="362.83" r="3.0" fill="rgb(214,126,44)" fill-opacity="0.35" stroke="none"/>
<circle cx="437.00" cy="351.25" r="3.0" fill="rgb(214,126,44)" fill-opacity="0.35" stroke="none"/>
<circle cx="440.00" cy="362.35" r="3.0" fill="rgb(214,126,44)" fill-opacity="0.35" stroke="none"/>
<circle cx="443.01" cy="374.35" r="3.0" fill="rgb(214,126,44)" fill-opacity="0.35" stroke="none"/>
<circle cx="446.01" cy="364.20" r="3.0" fill="rgb(214,126,44)" fill-opacity="0.35" stroke="none"/>
<circle cx="427.99" cy="346.06" r="3.0" fill="rgb(214,126,44)" fill-opacity="0.35" stroke="none"/>
<circle cx="430.99" cy="324.77" r="3.0" fill="rgb(214,126,44)" fill-opacity="0.35" stroke="none"/>
<circle cx="434.00" cy="328.28" r="3.0" fill="rgb(214,126,44)" fill-opacity="0.35" stroke="none"/>
<circle cx="437.00" cy="342.63" r="3.0" fill="rgb(214,126,44)" fill-opacity="0.35" stroke="none"/>
<circle cx="440.00" cy="308.00" r="3.0" fill="rgb(214,126,44)" fill-opacity="0.35" stroke="none"/>
<circle cx="443.01" cy="387.40" r="3.0" fill="rgb(214,126,44)" fill-opacity="0.35" stroke="none"/>
<circle cx="446.01" cy="309.22" r="3.0" fill="rgb(214,126,44)" fill-opacity="0.35" stroke="none"/>
<circle cx="427.99" cy="337.22" r="3.0" fill="rgb(214,126,44)" fill-opacity="0.35" stroke="none"/>
<line x1="437.00" y1="324.77" x2="437.00" y2="344.01" stroke="rgb(214,126,44)" stroke-width="2"/>
<line x1="437.00" y1="358.20" x2="437.00" y2="375.93" stroke="rgb(214,126,44)" stroke-width="2"/>
<line x1="415.97" y1="324.77" x2="458.03" y2="324.77" stroke="rgb(214,126,44)" stroke-width="2"/>
<line x1="415.97" y1="375.93" x2="458.03" y2="375.93" stroke="rgb(214,126,44)" stroke-width="2"/>
<rect x="415.97" y="344.01" width="42.06" height="14.19" fill="rgb(214,126,44)" fill-opacity="0.28" stroke="rgb(214,126,44)" stroke-width="2"/>
<line x1="415.97" y1="351.32" x2="458.03" y2="351.32" stroke="rgb(214,126,44)" stroke-width="3"/>
<text x="437.00" y="462" text-anchor="middle" font-size="14" font-family="Helvetica, Arial, sans-serif">GCP alignment</text>
<circle cx="659.32" cy="403.57" r="3.0" fill="rgb(26,140,255)" fill-opacity="0.35" stroke="none"/>
<circle cx="662.32" cy="396.42" r="3.0" fill="rgb(26,140,255)" fill-opacity="0.35" stroke="none"/>
<circle cx="665.33" cy="411.06" r="3.0" fill="rgb(26,140,255)" fill-opacity="0.35" stroke="none"/>
<circle cx="668.33" cy="404.98" r="3.0" fill="rgb(26,140,255)" fill-opacity="0.35" stroke="none"/>
<circle cx="671.34" cy="401.55" r="3.0" fill="rgb(26,140,255)" fill-opacity="0.35" stroke="none"/>
<circle cx="674.34" cy="405.30" r="3.0" fill="rgb(26,140,255)" fill-opacity="0.35" stroke="none"/>
<circle cx="677.35" cy="405.81" r="3.0" fill="rgb(26,140,255)" fill-opacity="0.35" stroke="none"/>
<circle cx="659.32" cy="402.71" r="3.0" fill="rgb(26,140,255)" fill-opacity="0.35" stroke="none"/>
<circle cx="662.32" cy="407.21" r="3.0" fill="rgb(26,140,255)" fill-opacity="0.35" stroke="none"/>
<circle cx="665.33" cy="385.75" r="3.0" fill="rgb(26,140,255)" fill-opacity="0.35" stroke="none"/>
<circle cx="668.33" cy="402.35" r="3.0" fill="rgb(26,140,255)" fill-opacity="0.35" stroke="none"/>
<circle cx="671.34" cy="401.42" r="3.0" fill="rgb(26,140,255)" fill-opacity="0.35" stroke="none"/>
<circle cx="674.34" cy="402.29" r="3.0" fill="rgb(26,140,255)" fill-opacity="0.35" stroke="none"/>
<circle cx="677.35" cy="405.81" r="3.0" fill="rgb(26,140,255)" fill-opacity="0.35" stroke="none"/>
<circle cx="659.32" cy="400.70" r="3.0" fill="rgb(26,140,255)" fill-opacity="0.35" stroke="none"/>
<circle cx="662.32" cy="401.83" r="3.0" fill="rgb(26,140,255)" fill-opacity="0.35" stroke="none"/>
<circle cx="665.33" cy="402.36" r="3.0" fill="rgb(26,140,255)" fill-opacity="0.35" stroke="none"/>
<circle cx="668.33" cy="407.53" r="3.0" fill="rgb(26,140,255)" fill-opacity="0.35" stroke="none"/>
<circle cx="671.34" cy="405.95" r="3.0" fill="rgb(26,140,255)" fill-opacity="0.35" stroke="none"/>
<circle cx="674.34" cy="402.50" r="3.0" fill="rgb(26,140,255)" fill-opacity="0.35" stroke="none"/>
<circle cx="677.35" cy="405.20" r="3.0" fill="rgb(26,140,255)" fill-opacity="0.35" stroke="none"/>
<circle cx="659.32" cy="404.56" r="3.0" fill="rgb(26,140,255)" fill-opacity="0.35" stroke="none"/>
<circle cx="662.32" cy="387.27" r="3.0" fill="rgb(26,140,255)" fill-opacity="0.35" stroke="none"/>
<circle cx="665.33" cy="376.84" r="3.0" fill="rgb(26,140,255)" fill-opacity="0.35" stroke="none"/>
<circle cx="668.33" cy="389.68" r="3.0" fill="rgb(26,140,255)" fill-opacity="0.35" stroke="none"/>
<circle cx="671.34" cy="382.57" r="3.0" fill="rgb(26,140,255)" fill-opacity="0.35" stroke="none"/>
<circle cx="674.34" cy="404.82" r="3.0" fill="rgb(26,140,255)" fill-opacity="0.35" stroke="none"/>
<circle cx="677.35" cy="403.71" r="3.0" fill="rgb(26,140,255)" fill-opacity="0.35" stroke="none"/>
<circle cx="659.32" cy="404.84" r="3.0" fill="rgb(26,140,255)" fill-opacity="0.35" stroke="none"/>
<circle cx="662.32" cy="403.42" r="3.0" fill="rgb(26,140,255)" fill-opacity="0.35" stroke="none"/>
<circle cx="665.33" cy="413.76" r="3.0" fill="rgb(26,140,255)" fill-opacity="0.35" stroke="none"/>
<circle cx="668.33" cy="400.98" r="3.0" fill="rgb(26,140,255)" fill-opacity="0.35" stroke="none"/>
<circle cx="671.34" cy="405.74" r="3.0" fill="rgb(26,140,255)" fill-opacity="0.35" stroke="none"/>
<circle cx="674.34" cy="402.74" r="3.0" fill="rgb(26,140,255)" fill-opacity="0.35" stroke="none"/>
<circle cx="677.35" cy="382.62" r="3.0" fill="rgb(26,140,255)" fill-opacity="0.35" stroke="none"/>
<circle cx="659.32" cy="404.48" r="3.0" fill="rgb(26,140,255)" fill-opacity="0.35" stroke="none"/>
<circle cx="662.32" cy="398.75" r="3.0" fill="rgb(26,140,255)" fill-opacity="0.35" stroke="none"/>
<circle cx="665.33" cy="398.80" r="3.0" fill="rgb(26,140,255)" fill-opacity="0.35" stroke="none"/>
<circle cx="668.33" cy="411.52" r="3.0" fill="rgb(26,140,255)" fill-opacity="0.35" stroke="none"/>
<circle cx="671.34" cy="397.35" r="3.0" fill="rgb(26,140,255)" fill-opacity="0.35" stroke="none"/>
<circle cx="674.34" cy="398.28" r="3.0" fill="rgb(26,140,255)" fill-opacity="0.35" stroke="none"/>
<circle cx="677.35" cy="390.48" r="3.0" fill="rgb(26,140,255)" fill-opacity="0.35" stroke="none"/>
<circle cx="659.32" cy="376.79" r="3.0" fill="rgb(26,140,255)" fill-opacity="0.35" stroke="none"/>
<circle cx="662.32" cy="389.27" r="3.0" fill="rgb(26,140,255)" fill-opacity="0.35" stroke="none"/>
<circle cx="665.33" cy="388.39" r="3.0" fill="rgb(26,140,255)" fill-opacity="0.35" stroke="none"/>
<circle cx="668.33" cy="397.25" r="3.0" fill="rgb(26,140,255)" fill-opacity="0.35" stroke="none"/>
<circle cx="671.34" cy="383.64" r="3.0" fill="rgb(26,140,255)" fill-opacity="0.35" stroke="none"/>
<circle cx="674.34" cy="411.15" r="3.0" fill="rgb(26,140,255)" fill-opacity="0.35" stroke="none"/>
<circle cx="677.35" cy="388.96" r="3.0" fill="rgb(26,140,255)" fill-opacity="0.35" stroke="none"/>
<circle cx="659.32" cy="394.66" r="3.0" fill="rgb(26,140,255)" fill-opacity="0.35" stroke="none"/>
<line x1="668.33" y1="382.57" x2="668.33" y2="395.10" stroke="rgb(26,140,255)" stroke-width="2"/>
<line x1="668.33" y1="404.95" x2="668.33" y2="413.76" stroke="rgb(26,140,255)" stroke-width="2"/>
<line x1="647.30" y1="382.57" x2="689.36" y2="382.57" stroke="rgb(26,140,255)" stroke-width="2"/>
<line x1="647.30" y1="413.76" x2="689.36" y2="413.76" stroke="rgb(26,140,255)" stroke-width="2"/>
<rect x="647.30" y="395.10" width="42.06" height="9.85" fill="rgb(26,140,255)" fill-opacity="0.28" stroke="rgb(26,140,255)" stroke-width="2"/>
<line x1="647.30" y1="402.32" x2="689.36" y2="402.32" stroke="rgb(26,140,255)" stroke-width="3"/>
<text x="668.33" y="462" text-anchor="middle" font-size="14" font-family="Helvetica, Arial, sans-serif">Edge-proxy</text>
</svg>